<?xml version="1.0" encoding="UTF-8" standalone="no"?>
<svg
   width="347.39999"
   height="167.64575"
   viewBox="0 0 350 168.90045"
   class="looka-1j8o68f"
   version="1.1"
   id="svg28"
   sodipodi:docname="logo.svg"
   xmlns:inkscape="http://www.inkscape.org/namespaces/inkscape"
   xmlns:sodipodi="http://sodipodi.sourceforge.net/DTD/sodipodi-0.dtd"
   xmlns="http://www.w3.org/2000/svg"
   xmlns:svg="http://www.w3.org/2000/svg">
  <sodipodi:namedview
     id="namedview28"
     pagecolor="#ffffff"
     bordercolor="#000000"
     borderopacity="0.25"
     inkscape:showpageshadow="2"
     inkscape:pageopacity="0.0"
     inkscape:pagecheckerboard="0"
     inkscape:deskcolor="#d1d1d1" />
  <defs
     id="SvgjsDefs1182" />
  <g
     id="SvgjsG1183"
     featurekey="e7LhAk-0"
     transform="matrix(0.15146394,0,0,0.15146394,99.258138,-26.301281)"
     fill="#ffb400">
    <g
       id="g28">
      <g
         id="g1">
        <path
           class="st0"
           d="m 452.5,578.9 c -10.5,-6.1 -22.3,-10.5 -34.3,-12.8 -9.2,-1.7 -19.6,-2.6 -28.5,0.7 -7.7,2.8 -11.7,9.6 -15.2,16.7 -2.9,6 -3.1,11.3 0.2,17.3 9.7,17.4 32.9,27.5 51.2,32.1 10.6,2.7 22.8,4.4 33.4,1 8,-2.6 12.6,-9.4 16.1,-16.7 -1,1.9 -2.1,3.7 -3.3,5.4 -0.2,0.3 -3.2,4.6 -2.2,1.8 0.6,-1.6 0.7,-3.3 0.5,-5 -1,0.5 -2,0.9 -3,1.3 -3.5,1.2 -7.3,1.7 -11.1,1.9 -7.5,0.3 -15,-0.7 -22.3,-2.5 -1.4,-0.3 -2.7,-0.7 -4.1,-1.1 -9.1,-2.6 -18.6,-6.4 -27.1,-11.6 -6.5,-4 -12.5,-8.8 -17.2,-14.6 -3.2,-3.9 -4.9,-7.5 -5.6,-12 -1.1,0.5 -2.2,1.7 -3.2,2.1 -0.3,0.1 -0.6,0.5 -0.9,0.8 0.4,-0.7 1.1,-1.9 2.1,-3.6 1.2,-2.1 1.8,-3.3 2.1,-3.8 -0.2,0.4 -0.4,1.1 -0.4,1.6 0.1,1 0.2,2 0.3,2.9 0,0 0,0 0,0 3.4,-1.7 7.3,-2.4 11,-2.8 7.5,-0.7 15.2,0 22.8,1.6 4.6,-3.4 11,-4.1 16.5,-3 9.1,1.8 18.1,8.8 18.9,17.9 5.6,3.6 10.9,7.9 15.2,13.1 2.6,3.2 5.4,7.5 5.9,11.8 0.5,-0.2 0.9,-0.5 1.4,-0.8 0.8,-0.5 1.3,-1 1.7,-1.4 v 0 c 0.7,-1.1 1.4,-2.2 2.2,-3.1 1.5,-1.8 2,-1.8 0.9,0.5 -0.4,0.8 -0.8,1.7 -1.2,2.5 0.6,-1.2 1.2,-2.4 1.6,-3.6 5.5,-15 -13.4,-28.2 -24.4,-34.6 z m -76.6,4.8 c -1.1,2 -0.6,1 0,0 z m 4.3,-7.5 c 0,-0.1 0.1,-0.2 0.1,-0.2 0,0 -0.1,0.1 -0.1,0.2 z"
           style="fill:#ffb400"
           id="path1" />
      </g>
      <g
         id="g2">
        <path
           class="st0"
           d="m 829.7,475.1 c -6.3,-1.8 -14.2,-0.5 -20.7,-0.5 H 550 c -6.2,0 -12.4,0.2 -18.6,-0.4 -16.9,-1.6 -33.4,-6.6 -48.9,-13.4 -11.1,-4.9 -22.7,-10.3 -31.9,-18.3 -22.8,-20 -45.5,-40 -68.3,-60 -31.2,-27.4 -62.5,-54.9 -93.7,-82.3 -9.6,-8.4 -19.2,-16.8 -28.8,-25.3 -5.6,-4.9 -13.2,-10.5 -20.6,-5.3 -5.8,4.1 -9.6,12.7 -12.8,18.6 -2.6,4.7 -5.2,9.7 -6,15.1 -1.1,7.2 0.3,14.8 1.7,21.8 4,19.5 11.4,38.4 18.9,56.7 4.9,12 9.8,24.3 15.9,35.8 2.5,4.8 5.7,9.3 8.4,14 5.4,9.4 10.5,19.1 15,29 5.2,11.3 9.9,23 12.7,35.2 1.3,5.4 2.2,11 2.3,16.6 0,1.4 0,2.9 -0.2,4.3 -3.1,2.7 -6.3,5.3 -9.7,7.7 -9.3,6.8 -19,13 -28.9,18.8 -21.5,12.8 -43.8,24.2 -66.1,35.5 -8.8,4.4 -17.5,8.8 -26.3,13.3 -5.1,2.6 -11.4,5.1 -15.4,9.4 -4.7,5.1 -27.9,38 -7.3,38.8 2.8,0.1 5.6,-0.1 8.4,-0.1 15.8,-0.2 31.5,-0.5 47.3,-0.7 40,-0.6 80,-1.2 119.9,-1.8 5.2,-0.1 10.4,-0.2 15.6,-0.2 5.7,-0.1 11.2,0.8 12,7.8 1.6,13 8.2,26.3 21,31.4 12.1,4.9 26.3,4.4 39,3.3 5.8,-0.5 11.6,-1.2 17.3,-2.1 5.1,-0.8 10.9,-3.1 15.6,-0.1 2.5,1.6 4.8,3.6 7.2,5.4 14.4,10.8 28.9,21.6 43.3,32.4 16.3,12.2 32.7,24.4 49,36.7 7.3,5.4 23.9,22.1 33.1,14 5,-4.4 8.6,-11.7 11.7,-17.4 2.4,-4.4 5.8,-9.7 5.4,-14.8 -0.4,-4.5 -2.3,-9.3 -3.3,-13.7 -1.2,-4.9 -2.3,-9.8 -3.4,-14.7 -3.5,-15.9 -6.3,-32 -7.7,-48.3 -1.3,-15.2 -1.3,-31.9 2.1,-46.3 0,0 0,0 0,0 0.5,-0.3 1,-0.6 1.5,-0.9 0.2,-0.1 0.9,-0.4 1.1,-0.5 v 0 c 0,0 0,0 0,0 2.7,-1.1 5.6,-1.9 8.3,-2.9 35.7,-13.9 71.4,-27.7 107.1,-41.5 37.3,-14.5 75.1,-28 112.2,-43.2 5.6,-2.3 11.6,-4.8 16,-9.2 3.8,-3.9 6.7,-8.8 9.3,-13.5 2.5,-4.3 5.3,-8.9 6.7,-13.8 1.8,-5.6 -2.8,-8.6 -7.4,-10.4 z M 569.8,615.8 c 0,-0.1 0.1,-0.2 0.3,-0.3 -0.1,0.1 -0.2,0.3 -0.3,0.3 z M 765.2,517 c -39.8,15.3 -79.6,30.8 -119.4,46.2 -17,6.6 -34,14.2 -51.4,19.8 -4.8,1.5 -8.4,4.3 -11.7,8.1 -6.4,7.4 -11.5,16.5 -15.8,25.2 -3.2,6.5 -5.8,13.2 -7.4,20.2 -4.2,18.3 -2.9,37.7 -0.7,56.1 1.8,15 4.6,29.9 8,44.7 -7.9,-5.5 -15.4,-11.6 -23.1,-17.4 -15.2,-11.4 -30.4,-22.8 -45.6,-34.1 -12.7,-9.5 -25.5,-19.1 -38.2,-28.6 -2.3,-1.8 -4.7,-3.7 -7.1,-5.3 -3.8,-2.4 -7.3,-1.4 -11.4,-0.6 -4.8,0.9 -9.7,1.6 -14.6,2.2 -11.9,1.4 -24.2,2.1 -36.1,0.1 -12.8,-2.2 -22.2,-9 -27.8,-21.1 -1.2,-2.5 -2.1,-5.2 -2.6,-8 -0.5,-2.8 -0.1,-6 -1.5,-8.6 -1.6,-3 -4.6,-4.2 -7.8,-4.3 -2.8,-0.1 -5.7,0.1 -8.6,0.1 -33.3,0.5 -66.6,1 -100,1.5 -28.2,0.4 -56.4,1.1 -84.6,1.3 -0.4,0 -0.8,0 -1.2,0 8.4,-4.3 16.8,-8.5 25.2,-12.7 24.1,-12.2 48.1,-24.7 71,-39 9.6,-6 19.2,-12.4 27.9,-19.8 11.2,-9.7 19.5,-22.4 25.6,-35.9 10.3,-22.7 -0.5,-49.1 -10,-70.3 -4.8,-10.7 -10.3,-21.2 -16.2,-31.4 -2.7,-4.7 -5.9,-9.3 -8.4,-14.2 -6.8,-13.4 -12.6,-27.5 -18.2,-41.5 -7,-17.6 -14.4,-36.1 -17.3,-55 1.6,0.6 3,1.4 4.1,2.3 22.5,18.6 44,38.6 66,57.9 33.4,29.3 66.7,58.6 100.1,87.9 9.6,8.4 19.2,16.9 28.8,25.3 10.3,9.1 23.5,15.1 36.1,20.3 17.2,7.1 35.7,12 54.4,12.3 3.7,0 7.5,-0.1 11.3,-0.1 h 270 c 0.5,0 1,0 1.5,0 -14.6,5.3 -28.9,10.9 -43.3,16.4 z"
           style="fill:#ffb400"
           id="path2" />
      </g>
      <g
         id="g4">
        <path
           class="st0"
           d="m 380.1,576.3 c -0.2,0.4 -0.4,1.1 -0.4,1.6 0.1,1 0.2,2 0.3,2.9 -1.1,0.5 -2.2,1.7 -3.2,2.1 -0.3,0.1 -0.6,0.5 -0.9,0.8 0.4,-0.7 1.1,-1.9 2.1,-3.6 1.3,-2.1 1.9,-3.2 2.1,-3.8 z"
           style="fill:#ffb400"
           id="path3" />
        <path
           class="st0"
           d="m 476.6,614.7 c -0.4,0.8 -0.8,1.7 -1.2,2.5 -1,1.9 -2.1,3.7 -3.3,5.4 -0.2,0.3 -3.2,4.6 -2.2,1.8 0.6,-1.6 0.7,-3.3 0.5,-5 0.5,-0.2 0.9,-0.5 1.4,-0.8 0.8,-0.5 1.3,-1 1.7,-1.4 v 0 c 0.7,-1.1 1.4,-2.2 2.2,-3.1 1.5,-1.8 2,-1.7 0.9,0.6 z"
           style="fill:#ffb400"
           id="path4" />
      </g>
      <g
         id="g5">
        <path
           class="st0"
           d="m 449.3,594.5 c -0.8,-9.1 -9.8,-16.1 -18.9,-17.9 -5.5,-1.1 -11.9,-0.5 -16.5,3 -0.3,0.2 -0.5,0.4 -0.7,0.6 -4.6,3.9 -8.1,10.6 -10.3,16.1 -1.5,4 -1.4,7.8 -0.1,11.1 8.5,5.2 18,9 27.1,11.6 1.3,0.4 2.7,0.8 4.1,1.1 1.1,-0.5 2.1,-1 3,-1.7 4.3,-3.1 7.3,-8.4 9.6,-13.3 0,0 0,0 0,0 0.7,-1.3 1.4,-2.7 1.8,-4.1 0.9,-2.2 1.1,-4.4 0.9,-6.5 z m -8.5,12.9 c -2.1,0.8 -4.3,1.3 -6.5,1.3 -4.4,0.2 -8.7,-0.8 -12.6,-2.8 -3.8,-1.8 -7.2,-4.6 -9.6,-8.1 -1,-1.5 -1.9,-3.2 -2.4,-5 -0.1,-0.6 -0.3,-1.2 -0.3,-1.8 0.4,-0.2 0.7,-0.4 1.1,-0.6 2.1,-0.8 4.3,-1.2 6.5,-1.3 4.6,-0.2 9.3,1 13.3,3.1 5.3,2.8 10.9,8.3 11.6,14.6 -0.3,0.2 -0.7,0.4 -1.1,0.6 z"
           style="fill:#ffb400"
           id="path5" />
      </g>
      <g
         id="g10">
        <path
           class="st0"
           d="m 129,254.8 c -0.1,0.1 -0.2,0.4 -0.4,0.8 -1.1,1.4 -2.3,2.8 0.4,-0.8 z"
           style="fill:#ffb400"
           id="path6" />
        <path
           class="st0"
           d="m 208.6,447.7 c -0.2,0.1 -0.4,0.1 -0.6,0.1 0.2,0.1 0.4,0 0.6,-0.1 z"
           style="fill:#ffb400"
           id="path7" />
        <path
           class="st0"
           d="m 213,442.5 c -1.4,2.4 -3,4.6 -4.2,5.2 1,-0.7 2.5,-2.6 4.2,-5.2 z"
           style="fill:#ffb400"
           id="path8" />
        <path
           class="st0"
           d="m 213.1,442.3 c 1.8,-2.9 3.3,-5.9 3.8,-6.7 0.5,-0.9 6.7,-12.6 6.3,-13.7 0.5,1.2 -5.4,13.1 -10.1,20.4 z"
           style="fill:#ffb400"
           id="path9" />
        <path
           class="st0"
           d="m 452.2,322.8 c -9.7,-44.9 -28.9,-87.4 -66,-116.1 -36.1,-27.9 -83,-36.1 -127.6,-32.1 -23.9,2.1 -48.6,6.8 -70.3,17.3 -22.1,10.8 -40,28 -53.6,48.3 -21.9,32.7 -38.1,71.4 -29.2,111.3 5.8,26.2 21.4,48.5 42.2,65.2 17.4,14 38.6,25.8 60.4,31.2 0.2,0 0.3,0 0.6,-0.1 0.1,0 0.1,0 0.2,-0.1 1,-0.6 2.5,-2.6 4.2,-5.2 0,0 0,0 0,0 0,0 0.1,-0.1 0.1,-0.1 1.8,-2.9 3.3,-5.9 3.8,-6.7 0.5,-0.9 6.7,-12.6 6.3,-13.7 0,0 0,0 0,0 0,0 0,0 0,0 0,0 0,0 -0.1,-0.1 -24.5,-12 -48,-29.9 -64.6,-51.7 -8.9,-11.7 -15.6,-24.8 -19,-39.1 -3,-12.6 -2.6,-25.1 -0.9,-37.8 v 0 c 0,0 0,-0.1 0,-0.1 0.6,-2.4 1,-4.8 1.5,-7.2 0.1,-0.7 0.1,-0.7 0.1,-0.6 0,0 0,-0.1 0,-0.2 0.2,-0.8 0.5,-1.7 0.7,-2.5 1.1,-3.6 2.3,-7.2 3.8,-10.7 0.1,-0.3 0.2,-0.5 0.3,-0.8 0,0 0,0 0,0 2.2,-2.7 4.2,-5.5 6.5,-8.1 20.9,-23.1 49.7,-32.5 79.5,-37.4 31.2,-5.1 63.8,-5.4 94.2,4.1 24.7,7.7 46.7,21.8 64.5,40.5 21.5,22.7 35.3,50.1 47.5,78.5 0.2,0.5 2.7,-2.8 3.1,-3.3 0,0 0,-0.1 0,-0.1 2,-2.8 3.9,-5.9 5.6,-8.9 1.8,-3 3.5,-6.2 4.9,-9.4 0.6,-1.2 1.6,-2.9 1.3,-4.3 z M 202.1,211.4 c -13.8,6 -26.3,15.1 -36.7,26 -14.3,15.2 -25.7,34.3 -33.8,53.4 -2.2,5.1 -4,10.3 -5.6,15.7 -0.1,0.2 -0.1,0.4 -0.2,0.5 0,0 0,0 0,0 0,0 0,0 0,0 v 0 c 0,0 0,0 0,0 0,0.1 0,0.1 0,0.1 0,0 0,0 0,0 0,0 0,0 0,0 0,0 0,0 0,0 0,0 0,0 0,0 v 0 c 0,0.1 -0.1,0.2 -0.1,0.3 -0.3,1 -0.5,1.9 -0.8,2.9 -0.4,1.9 -0.8,3.8 -1.2,5.6 0,0 0,0 0,0.1 -0.1,0.5 -0.3,1.1 -0.3,1.6 0,0.1 0,0.1 0,0.2 0,0.1 0,0.3 0,0.3 v 0 c -0.6,4.5 -1,9 -1.2,13.4 -3.6,-13.1 -4.6,-26.8 -3.3,-40.5 0.5,-5.4 1.6,-10.6 2.8,-15.9 0.7,-3.2 1.7,-6.2 2.7,-9.3 0.8,-2.5 1.8,-5 2.8,-7.4 0,0 0,0 0,0.1 0.1,-0.2 1,-2.1 1.5,-3.2 -1.1,1.4 -2.3,2.9 0.4,-0.8 -0.1,0.1 -0.2,0.4 -0.4,0.8 0.4,-0.5 0.8,-1 1,-1.3 1.2,-1.7 2.5,-3.3 3.8,-4.9 3.9,-4.7 8.3,-9 12.9,-13.1 8.6,-7.5 18.1,-14 28.3,-19 19.5,-9.5 41.7,-13.9 63.2,-16.2 -12.3,2.6 -24.5,5.7 -35.8,10.6 z"
           style="fill:#ffb400"
           id="path10" />
      </g>
      <g
         id="g13">
        <path
           class="st0"
           d="M 961.1,456.9 C 957,435.8 942.4,415.7 923.7,405.1 893,387.6 857.3,382.7 822.9,389.6 c -28.5,5.8 -57.7,19.5 -79.1,39.4 -0.7,0.3 -1.5,1.3 -2.2,2.4 -3.2,3.9 -5.6,8.8 -7.9,13.1 -1.4,2.6 -3.1,5.3 -3.9,8.1 0,0 0,0.1 0,0.2 0,0 0,0.1 0,0.1 0,0 0,0 0,0 -0.2,0.6 -0.6,1.4 -0.3,1.7 0,0.3 0.2,0.3 0.6,-0.1 32,-15.7 69.1,-25.6 104.9,-22.9 24,1.8 45.6,10 66.2,22.1 -0.1,-0.1 -0.2,-0.2 -0.3,-0.3 0.3,0.2 0.5,0.3 0.8,0.5 -0.1,-0.1 -0.3,-0.2 -0.4,-0.3 10.3,8.6 19.1,20.6 22,33.9 1.5,6.7 0.9,13.2 -0.9,19.8 -2.1,2.2 -4.5,4.2 -6.8,6 -5.4,4.2 -11.4,7.7 -17.5,10.9 -6.3,3.4 -11.6,5.5 -17.8,7.9 -22,8.5 -45.1,12.9 -68,18 -1.2,0.3 -2.6,2.5 -3.1,3.3 -2.1,2.9 -3.9,5.9 -5.7,9 -0.6,1 -6.7,13.7 -6.2,13.7 36.7,2.5 77.2,0.4 110.1,-18.2 10.6,-6 19,-13.4 26.1,-22.5 0.8,-0.7 2.1,-2.6 2.3,-2.9 0,0 0,0 0,0 0,0 0,0 0,0 8.4,-12 15.4,-23.3 21.1,-37.2 4.9,-12.3 6.7,-25.3 4.2,-38.4 z m -39.6,58.7 c -0.1,0.2 -0.2,0.4 -0.3,0.6 v 0 c 0,0 -0.1,0.1 -0.1,0.2 0,0 0,-0.1 0.1,-0.2 0,0 0,0 0,0 0,-0.3 0.2,-0.5 0.3,-0.6 z m 21.3,0.9 c -0.6,1.1 -1.1,1.7 -0.6,0.8 0,0 0,0 0,0 v 0 c 0.3,-0.4 0.6,-0.9 0.8,-1.2 -0.1,0.1 -0.2,0.3 -0.2,0.4 z m 4.1,-17.6 c -0.4,5.3 -1.6,10.2 -3.3,15.1 -0.5,0.8 -0.9,1.5 -1.4,2.2 0,0 0,0 0,0 l -0.2,0.2 c -1.5,1.3 -2.9,3 -4.4,4.4 -1.3,1.1 -2.5,2.2 -3.8,3.3 -5.4,4.3 -11.5,7.9 -17.8,11 -6.4,3.2 -13.1,5.6 -19.9,7.7 7.7,-5.1 13.9,-11.3 19.2,-18.3 3,-1.9 6,-8.5 7.6,-11.4 1.9,-3.4 4.1,-6.9 6.5,-11.3 1.9,-3.6 3.7,-7.3 5.3,-11 3,-7.1 5,-14.9 4.4,-22.6 -0.2,-2.2 -0.5,-4.3 -1,-6.4 6.4,11.2 9.9,24.1 8.8,37.1 z"
           style="fill:#ffb400"
           id="path11" />
        <path
           class="st0"
           d="m 901.6,453.9 c -0.1,-0.1 -0.3,-0.2 -0.4,-0.3 -0.1,-0.1 -0.2,-0.2 -0.3,-0.3 0.2,0.3 0.5,0.5 0.7,0.6 z"
           style="fill:#ffb400"
           id="path12" />
        <path
           class="st0"
           d="m 921.2,516.1 c 0,0 -0.1,0.1 -0.1,0.2 0,-0.1 0,-0.1 0.1,-0.2 z"
           style="fill:#ffb400"
           id="path13" />
      </g>
      <g
         id="g19">
        <path
           class="st0"
           d="m 635.4,705.6 c -2,-0.8 -17,23.7 -15,26 4.8,5.5 9.7,10.9 13.7,17.1 2.6,4 5.1,8.5 6.1,13.3 0,0 0,0.1 0,0.2 -13.8,9.4 -30.8,13.6 -47.3,14.8 0,0 0,0 0,0 h -0.1 c 0,0 0,0 0.1,0 -0.7,-0.4 -3.4,0.1 -4.2,0.1 -3.9,0.1 -7.9,0.3 -11.8,0.3 -10.9,0.1 -22,-0.7 -32.8,-2.6 -23.3,-4 -48.5,-15.6 -57.5,-39.2 -0.1,-0.1 -0.2,-0.1 -0.4,0 0,0 0,0 0,0 -0.8,0.6 -2.8,3.3 -2.8,3.3 -1,1.4 -2,2.8 -2.9,4.3 -0.1,0.1 -0.1,0.1 -0.1,0.2 -0.2,0.3 -0.4,0.6 -0.6,0.9 -0.2,0.3 -0.4,0.6 -0.6,0.9 -0.5,0.8 -1,1.7 -1.5,2.5 -1.8,3.1 -3.5,6.2 -4.9,9.4 -0.3,0.7 -0.9,1.7 -1.2,2.7 -0.1,0.3 -0.1,0.6 -0.2,1 0,0 0,0.1 0,0.1 -2.5,20.8 14.8,40.1 31.2,49.9 18.5,11.1 41,15.5 62.4,15.7 17.6,0.2 34.6,-1.3 51,-8.5 10.6,-4.6 20.4,-11.1 28.3,-19.5 10.4,-11 19.4,-25.8 24.3,-40.1 8.9,-25.6 -12,-43.7 -33.2,-52.8 z m 20.1,69.7 c -2.1,2.1 -4.2,4.1 -6.6,6 -8.9,6.8 -19.1,11.8 -29.8,15 -7.5,2.2 -15,3.3 -22.6,3.8 17.3,-4 33.9,-12.1 44.3,-26.7 3.7,-5.2 7.9,-11.2 10.8,-17.5 2.1,3.7 3.5,7.8 4,12.3 0.3,2.4 0.3,4.8 -0.1,7.1 z"
           style="fill:#ffb400"
           id="path14" />
        <path
           class="st0"
           d="m 471.7,759.7 c -0.1,0.3 -0.1,0.6 -0.2,1 0,0 0,0.1 0,0.1 0,-0.4 0,-0.7 0.2,-1.1 z"
           style="fill:#ffb400"
           id="path15" />
        <path
           class="st0"
           d="m 479.3,745 c -0.5,0.8 -1,1.7 -1.5,2.5 -1.8,3.1 -3.5,6.2 -4.9,9.4 -0.3,0.7 -0.9,1.7 -1.2,2.7 1,-4.9 4.9,-10.3 7.6,-14.6 z"
           style="fill:#ffb400"
           id="path16" />
        <path
           class="st0"
           d="m 486.2,735.4 c -0.8,0.6 -2.8,3.3 -2.8,3.3 -1,1.4 -2,2.8 -2.9,4.3 1.3,-2.1 2.7,-4.6 4.4,-6.3 0,0 0.8,-1 1.3,-1.3 z"
           style="fill:#ffb400"
           id="path17" />
        <path
           class="st0"
           d="m 486.6,735.4 c -0.1,-0.1 -0.2,-0.1 -0.4,0 0.2,-0.1 0.3,-0.2 0.3,-0.1 z"
           style="fill:#ffb400"
           id="path18" />
        <path
           class="st0"
           d="m 593,776.8 v 0 c -0.1,0 -0.1,0 0,0 -0.1,0 0,0 0,0 z"
           style="fill:#ffb400"
           id="path19" />
      </g>
      <g
         id="g27">
        <path
           class="st0"
           d="m 212.3,654.9 c -0.2,0.1 -0.3,0.1 -0.5,0.2 -20,6.7 -42.4,7.9 -63,4.1 -20.9,-3.8 -39.5,-13.2 -56.7,-25.4 0,0 0,0 0,0 -9.4,-7.4 -16.6,-18.3 -16.6,-30.6 3.2,-1.9 6.7,-3.4 10.3,-4.7 16.4,-6 34.3,-6.8 51.5,-8.8 1.1,-0.1 2.7,-2.7 3.1,-3.3 2.1,-2.8 3.9,-5.9 5.7,-9 0.5,-1 7.3,-13.4 6.2,-13.7 -23.6,-7.1 -50.2,-11.2 -73.5,-0.7 -10.8,4.8 -17.9,13.5 -24.2,23.2 -6.9,10.6 -13.6,22.4 -15.8,35 -8.3,47.4 43.1,76.2 83.2,80.8 15.6,1.8 31.6,0.2 46.5,-4.9 10.4,-3.6 21.6,-8.8 29.6,-16.5 2.7,-2.6 4.8,-5.9 6.7,-9.2 0.6,-1.1 1,-2 1.5,-2.8 0.4,-0.8 0.9,-1.5 1.3,-2.3 0,-0.1 0.1,-0.2 0.1,-0.2 0.2,-0.3 0.3,-0.6 0.5,-0.9 0.1,-0.3 0.3,-0.6 0.5,-0.8 0,-0.1 0.1,-0.2 0.2,-0.3 0.8,-1.6 1.6,-3.2 2.3,-4.8 0,-0.5 1.1,-3.7 1.1,-4.4 0,0.1 0,0 0,0 z m -162.1,-56 c -1.3,0.9 1,-2.1 0,0 z m 10.1,29.7 c 0,1.6 0.2,3.3 0.4,4.8 -5.5,-9.3 -8.4,-20 -7.6,-31.2 0.1,-2.2 0.4,-4.5 0.9,-6.7 2.5,-2.2 5.1,-4.1 8.1,-5.8 6.3,-3.4 13.1,-5.5 20.2,-6.6 -2,2 -3.8,4.1 -5.5,6.5 -5.5,7.6 -10.6,16.2 -14,25 -1.7,4.4 -2.3,8.7 -2.5,13.4 -0.1,0.4 0,0.5 0,0.6 z"
           style="fill:#ffb400"
           id="path20" />
        <path
           class="st0"
           d="m 50.2,598.9 c 0,0 0,0 0,0 -1.3,0.9 1,-2.1 0,0 z"
           style="fill:#ffb400"
           id="path21" />
        <path
           class="st0"
           d="m 204.7,671.4 c -1.7,3.4 -4.1,7.8 -6.7,9.2 2.6,-2.6 4.8,-5.9 6.7,-9.2 z"
           style="fill:#ffb400"
           id="path22" />
        <path
           class="st0"
           d="m 207.4,666.3 c -0.9,1.7 -1.8,3.4 -2.8,5.1 0.6,-1.1 1,-2 1.5,-2.8 0.5,-0.7 0.9,-1.5 1.3,-2.3 z"
           style="fill:#ffb400"
           id="path23" />
        <path
           class="st0"
           d="m 208.5,664.3 c -0.3,0.6 -0.6,1.2 -1,1.8 0.2,-0.3 0.3,-0.6 0.5,-0.9 0.2,-0.3 0.4,-0.6 0.5,-0.9 z"
           style="fill:#ffb400"
           id="path24" />
        <path
           class="st0"
           d="m 212.3,654.9 c -0.2,0.1 -0.3,0.1 -0.5,0.2 0.3,-0.3 0.4,-0.3 0.5,-0.2 z"
           style="fill:#ffb400"
           id="path25" />
        <path
           class="st0"
           d="m 212.4,655 c -0.1,0 -0.1,-0.1 0,0 0,-0.1 0,-0.1 0,-0.1 z"
           style="fill:#ffb400"
           id="path26" />
        <path
           class="st0"
           d="m 212,657 c -0.7,2.4 -2,4.7 -3.3,7 0.8,-1.6 1.6,-3.2 2.3,-4.8 0.2,-0.4 1.2,-3.6 1.3,-4.2 0.2,0.5 -0.3,1.8 -0.3,2 z"
           style="fill:#ffb400"
           id="path27" />
      </g>
    </g>
  </g>
  <g
     id="SvgjsG1184"
     featurekey="Qg0WB5-0"
     transform="matrix(3.261467,0,0,3.261467,-4.7291315,102.92097)"
     fill="#f6f6f6">
    <path
       d="m 14.47,12.59 q 0,1.06 -0.27,2.015 -0.27,0.955 -0.77,1.78 -0.5,0.825 -1.195,1.495 -0.695,0.67 -1.54,1.14 Q 9.85,19.49 8.87,19.745 7.89,20 6.84,20 H 1.91 Q 1.73,20 1.59,19.92 1.45,19.84 1.45,19.58 V 5.61 Q 1.45,5.4 1.565,5.27 1.68,5.14 1.91,5.14 h 4.93 q 1.05,0 2.025,0.26 0.975,0.26 1.82,0.74 0.845,0.48 1.545,1.15 0.7,0.67 1.195,1.5 0.495,0.83 0.77,1.79 0.275,0.96 0.275,2.01 z M 5.32,8.73 v 7.69 h 0.84 q 0.23,0 0.45,-0.015 0.22,-0.015 0.44,-0.035 0.75,-0.06 1.4,-0.365 0.65,-0.305 1.135,-0.8 0.485,-0.495 0.76,-1.165 0.275,-0.67 0.275,-1.46 0,-0.84 -0.315,-1.545 Q 9.99,10.33 9.45,9.815 8.91,9.3 8.185,9.015 7.46,8.73 6.64,8.73 Z M 16.67,8.04 q 0,-0.17 0.075,-0.325 Q 16.82,7.56 16.93,7.47 17.19,7.3 17.47,7.3 h 1.51 q 0.19,0 0.3,0.07 0.11,0.07 0.185,0.18 0.075,0.11 0.13,0.25 0.055,0.14 0.135,0.28 0.02,0.04 0.08,0.195 0.06,0.155 0.13,0.34 0.07,0.185 0.135,0.35 Q 20.14,9.13 20.16,9.18 20.46,8.85 20.735,8.485 21.01,8.12 21.32,7.81 21.63,7.5 22.01,7.3 q 0.38,-0.2 0.9,-0.2 0.54,0 0.965,0.08 0.425,0.08 0.805,0.235 0.38,0.155 0.755,0.395 0.375,0.24 0.815,0.56 0.69,0.37 0.26,1.1 l -0.91,1.55 q -0.2,0.3 -0.49,0.37 -0.29,0.07 -0.63,-0.09 -0.43,-0.42 -0.875,-0.625 -0.445,-0.205 -1.015,-0.205 -0.39,0 -0.685,0.11 -0.295,0.11 -0.535,0.31 -0.24,0.2 -0.45,0.48 -0.21,0.28 -0.42,0.62 v 7.24 q 0,0.38 -0.185,0.575 Q 20.13,20 19.7,20 h -2.25 q -0.78,0 -0.78,-0.77 z m 10.15,5.62 q 0,-0.92 0.235,-1.77 0.235,-0.85 0.66,-1.575 Q 28.14,9.59 28.735,8.995 29.33,8.4 30.06,7.98 30.79,7.56 31.635,7.33 32.48,7.1 33.4,7.1 q 1.36,0 2.555,0.505 1.195,0.505 2.08,1.39 0.885,0.885 1.4,2.08 0.515,1.195 0.515,2.585 0,0.92 -0.235,1.765 Q 39.48,16.27 39.055,17 38.63,17.73 38.035,18.325 37.44,18.92 36.71,19.345 35.98,19.77 35.145,20 34.31,20.23 33.4,20.23 32.48,20.23 31.635,20 30.79,19.77 30.06,19.345 29.33,18.92 28.735,18.325 28.14,17.73 27.715,17 27.29,16.27 27.055,15.425 26.82,14.58 26.82,13.66 Z m 3.65,0 q 0,0.66 0.205,1.235 0.205,0.575 0.58,0.995 0.375,0.42 0.91,0.665 0.535,0.245 1.205,0.245 0.65,0 1.175,-0.245 0.525,-0.245 0.89,-0.665 0.365,-0.42 0.56,-0.995 0.195,-0.575 0.195,-1.235 0,-0.64 -0.195,-1.22 Q 35.8,11.86 35.435,11.42 35.07,10.98 34.545,10.725 34.02,10.47 33.37,10.47 q -0.67,0 -1.205,0.255 -0.535,0.255 -0.91,0.695 -0.375,0.44 -0.58,1.02 -0.205,0.58 -0.205,1.22 z M 42.2,7.47 Q 42.33,7.36 42.475,7.33 42.62,7.3 42.75,7.3 h 1.51 q 0.18,0 0.31,0.065 0.13,0.065 0.22,0.175 0.09,0.11 0.145,0.25 0.055,0.14 0.105,0.29 l 0.31,1.28 Q 45.5,9.05 45.785,8.655 46.07,8.26 46.51,7.915 46.95,7.57 47.555,7.335 48.16,7.1 48.96,7.1 q 1.14,0 2.07,0.44 0.93,0.44 1.585,1.2 0.655,0.76 1.015,1.775 0.36,1.015 0.36,2.165 v 6.55 q 0,0.38 -0.165,0.575 Q 53.66,20 53.3,20 H 50.99 Q 50.56,20 50.4,19.855 50.24,19.71 50.24,19.29 v -6.51 q 0,-0.43 -0.195,-0.815 Q 49.85,11.58 49.53,11.285 49.21,10.99 48.805,10.82 48.4,10.65 47.98,10.65 q -0.36,0 -0.735,0.16 -0.375,0.16 -0.69,0.445 -0.315,0.285 -0.53,0.67 -0.215,0.385 -0.245,0.835 v 6.5 q 0,0.17 -0.065,0.34 -0.065,0.17 -0.195,0.26 -0.13,0.08 -0.245,0.11 Q 45.16,20 45.01,20 h -2.26 q -0.43,0 -0.62,-0.21 -0.19,-0.21 -0.19,-0.56 V 8.04 q 0,-0.19 0.085,-0.35 0.085,-0.16 0.235,-0.25 z m 24.63,11.01 q -0.88,0.81 -1.98,1.265 -1.1,0.455 -2.33,0.455 -1.37,0 -2.59,-0.5 -1.22,-0.5 -2.14,-1.385 -0.92,-0.885 -1.46,-2.085 -0.54,-1.2 -0.54,-2.61 0,-0.88 0.215,-1.705 Q 56.22,11.09 56.615,10.37 57.01,9.65 57.575,9.045 58.14,8.44 58.84,8.01 59.54,7.58 60.36,7.34 61.18,7.1 62.09,7.1 q 0.83,0 1.61,0.22 0.78,0.22 1.465,0.62 0.685,0.4 1.255,0.96 0.57,0.56 0.98,1.225 0.41,0.665 0.635,1.42 0.225,0.755 0.225,1.555 0,0.52 -0.015,0.85 -0.015,0.33 -0.155,0.525 -0.14,0.195 -0.465,0.27 Q 67.3,14.82 66.67,14.82 h -7.2 q 0.1,0.64 0.405,1.07 0.305,0.43 0.705,0.685 0.4,0.255 0.85,0.365 0.45,0.11 0.85,0.11 0.36,0 0.74,-0.075 0.38,-0.075 0.735,-0.2 0.355,-0.125 0.65,-0.29 0.295,-0.165 0.475,-0.345 0.16,-0.13 0.275,-0.195 0.115,-0.065 0.245,-0.065 0.13,0 0.265,0.09 0.135,0.09 0.305,0.26 l 1.06,1.2 q 0.11,0.13 0.14,0.235 0.03,0.105 0.03,0.215 0,0.2 -0.11,0.345 -0.11,0.145 -0.26,0.255 z m -4.81,-8.33 q -0.39,0 -0.755,0.155 -0.365,0.155 -0.685,0.415 -0.32,0.26 -0.575,0.59 -0.255,0.33 -0.415,0.67 H 64.7 Q 64.49,11.59 64.245,11.26 64,10.93 63.685,10.68 63.37,10.43 62.965,10.29 62.56,10.15 62.02,10.15 Z M 70.78,5.61 Q 70.78,5.4 70.89,5.275 71,5.15 71.22,5.15 h 6.46 q 1.03,0 1.93,0.385 0.9,0.385 1.57,1.045 0.67,0.66 1.055,1.545 0.385,0.885 0.385,1.885 0,0.68 -0.185,1.295 -0.185,0.615 -0.515,1.15 -0.33,0.535 -0.785,0.97 -0.455,0.435 -0.995,0.745 l 2.57,4.84 q 0.07,0.14 0.18,0.33 0.11,0.19 0.11,0.33 0,0.16 -0.105,0.245 Q 82.79,20 82.61,20 H 79.18 Q 79.01,20 78.875,19.9 78.74,19.8 78.7,19.63 l -2.43,-4.57 h -1.62 v 4.51 Q 74.65,20 74.19,20 H 71.22 Q 71.02,20 70.9,19.895 70.78,19.79 70.78,19.57 Z m 7.83,4.44 q 0,-0.3 -0.11,-0.6 Q 78.39,9.15 78.19,8.9 77.99,8.65 77.71,8.48 77.43,8.31 77.09,8.26 76.81,8.24 76.565,8.225 76.32,8.21 76.03,8.21 h -1.38 v 3.67 h 1.84 q 0.18,0 0.32,-0.01 0.14,-0.01 0.31,-0.03 0.35,-0.04 0.63,-0.205 0.28,-0.165 0.47,-0.41 0.19,-0.245 0.29,-0.55 0.1,-0.305 0.1,-0.625 z m 5.41,-4.46 q 0,-0.2 0.135,-0.32 0.135,-0.12 0.335,-0.12 h 10.77 q 0.18,0 0.32,0.11 0.14,0.11 0.16,0.33 v 2.49 q 0,0.18 -0.125,0.345 Q 95.49,8.59 95.26,8.59 h -3.45 v 10.94 q 0,0.18 -0.13,0.325 Q 91.55,20 91.34,20 H 88.4 Q 88.23,20 88.08,19.865 87.93,19.73 87.93,19.53 V 8.59 h -3.44 q -0.2,0 -0.335,-0.13 Q 84.02,8.33 84.02,8.08 Z m 24.42,0.64 q 0.17,0.1 0.25,0.26 0.08,0.16 -0.03,0.38 l -1.69,2.4 q -0.11,0.17 -0.235,0.195 -0.125,0.025 -0.305,-0.085 -0.49,-0.37 -1.08,-0.57 -0.59,-0.2 -1.25,-0.2 -0.82,0 -1.51,0.31 -0.69,0.31 -1.19,0.85 -0.5,0.54 -0.78,1.26 -0.28,0.72 -0.28,1.54 0,0.82 0.28,1.535 0.28,0.715 0.78,1.25 0.5,0.535 1.19,0.845 0.69,0.31 1.51,0.31 0.66,0 1.26,-0.205 0.6,-0.205 1.09,-0.575 0.18,-0.11 0.3,-0.09 0.12,0.02 0.24,0.18 l 1.71,2.46 q 0.11,0.22 0.03,0.37 -0.08,0.15 -0.25,0.25 -0.94,0.63 -2.025,0.975 -1.085,0.345 -2.285,0.345 -1.06,0 -2.035,-0.27 -0.975,-0.27 -1.825,-0.77 -0.85,-0.5 -1.545,-1.195 Q 98.07,17.29 97.57,16.445 97.07,15.6 96.8,14.625 96.53,13.65 96.53,12.59 q 0,-1.06 0.27,-2.035 0.27,-0.975 0.77,-1.83 0.5,-0.855 1.195,-1.555 0.695,-0.7 1.545,-1.195 0.85,-0.495 1.825,-0.77 0.975,-0.275 2.035,-0.275 1.2,0 2.265,0.335 1.065,0.335 2.005,0.965 z"
       id="path28" />
  </g>
</svg>
